# xmcd
#
# Track frame offsets: 
#        150
#        5373
#        22261
#        38867
#        57375
#        74095
#        77002
#        97402
#        99487
#        114143
#        133635
#        150426
#        164147
#        165058
#        182007
#        192003
#        208960
#        214149
#        232058
#        248682
#        264187
#        266268
#        284298
#        297347
#
# Disc length: 4183 seconds
#
# Revision: 2
# Processed by: cddbd v1.5.2PL0 Copyright (c) Steve Scherf et al.
# Submitted via: ExactAudioCopyFreeDBPlugin 1.0
#
DISCID=59105518
DTITLE=Benzino - Arch Nemesis
DYEAR=1900
DGENRE=Hip-Hop
TTITLE0=Intro
TTITLE1=It's Nuthin'
TTITLE2=On My Mind (Feat. The Untouchables (Young L.O. and Young Hardy))
TTITLE3=Bottles and Up (Thug Da Club)
TTITLE4=U Can't Handle It
TTITLE5=Numb (Skit)
TTITLE6=Look Into My Eyes (Response To Eminem's "Toy Soldiers") (Feat.
TTITLE6=Troy Bell)
TTITLE7=News Flash (Skit)
TTITLE8=Arch Nemesis (Wish A Nigga Would) (Feat. Ba Dase)
TTITLE9=What's Really Good (Feat. Scarface and Young Hardy)
TTITLE10=Wide Body (Feat. Faheim)
TTITLE11=Dat's How It Goes (Feat. Lil Jon, Young Hardy and Gambino)
TTITLE12=2Pac (Intro)
TTITLE13=Trying To Make It Through (Feat. 2Pac and Freddie Foxxx)
TTITLE14=Ride (Skit)
TTITLE15=Front Back (Side To Side) (Feat. Huddy 6 and Young L.O.)
TTITLE16=Sorry (Skit)
TTITLE17=Not Me (Feat. Miss Lilli)
TTITLE18=Noche De Estrellas (Feat. Yaga and Mackie)
TTITLE19=Diamond Girl
TTITLE20=JB Floatin' (Skit)
TTITLE21=World Famous (Feat. 3 Down)
TTITLE22=Killa (Feat. Untouchables)
TTITLE23=Last Days Calling
EXTD=
EXTT0=
EXTT1=
EXTT2=
EXTT3=
EXTT4=
EXTT5=
EXTT6=
EXTT7=
EXTT8=
EXTT9=
EXTT10=
EXTT11=
EXTT12=
EXTT13=
EXTT14=
EXTT15=
EXTT16=
EXTT17=
EXTT18=
EXTT19=
EXTT20=
EXTT21=
EXTT22=
EXTT23=
PLAYORDER=
